<svg id="Layer_1" data-name="Layer 1" xmlns="http://www.w3.org/2000/svg" viewBox="0 0 63.08 63.08"><defs><style>.cls-1{fill:#dd2f27;}.cls-2{fill:#921d1d;}</style></defs><title>custom-ex</title><path class="cls-1" d="M54.39,61.58a7.17,7.17,0,0,1-5.09-2.1L3.6,13.77A7.11,7.11,0,0,1,1.5,8.68,7.17,7.17,0,0,1,8.68,1.5a7.11,7.11,0,0,1,5.09,2.1L59.48,49.31a7.19,7.19,0,0,1-5.09,12.27Z"/><path class="cls-2" d="M8.68,3a5.66,5.66,0,0,1,4,1.66L58.42,50.37a5.69,5.69,0,0,1-8.05,8.05L4.66,12.71A5.69,5.69,0,0,1,8.68,3m0-3A8.65,8.65,0,0,0,2.54,2.54h0a8.7,8.7,0,0,0,0,12.29l45.7,45.71a8.72,8.72,0,0,0,12.3,0h0a8.73,8.73,0,0,0,0-12.3L14.83,2.54A8.68,8.68,0,0,0,8.68,0Z"/><path class="cls-1" d="M8.68,61.58A7.19,7.19,0,0,1,3.6,49.31L49.3,3.6a7.22,7.22,0,0,1,10.18,0,7.21,7.21,0,0,1,0,10.17L13.77,59.48A7.15,7.15,0,0,1,8.68,61.58Z"/><path class="cls-2" d="M54.39,3a5.69,5.69,0,0,1,4,9.71L12.71,58.42a5.69,5.69,0,0,1-9.71-4,5.62,5.62,0,0,1,1.66-4L50.37,4.66a5.62,5.62,0,0,1,4-1.66m0-3a8.69,8.69,0,0,0-6.15,2.54L2.54,48.24a8.71,8.71,0,0,0,0,12.3h0a8.7,8.7,0,0,0,12.29,0L60.54,14.83a8.72,8.72,0,0,0,0-12.29h0A8.68,8.68,0,0,0,54.39,0Z"/><rect class="cls-1" x="28.88" y="20.79" width="11.27" height="27.31" transform="translate(-14.25 34.49) rotate(-45)"/></svg>