<svg id="Layer_1" data-name="Layer 1" xmlns="http://www.w3.org/2000/svg" viewBox="0 0 67.88 67.88"><defs><style>.cls-1{fill:#dd2f27;}.cls-2{fill:#921d1d;}</style></defs><title>ex</title><path class="cls-1" d="M56.08,63.79A7.16,7.16,0,0,1,51,61.7L5.29,16a7.21,7.21,0,0,1,0-10.17,7.21,7.21,0,0,1,10.17,0L61.17,51.53a7.18,7.18,0,0,1-5.09,12.26Z"/><path class="cls-2" d="M10.37,5.22a5.66,5.66,0,0,1,4,1.66L60.11,52.59a5.7,5.7,0,0,1-8.06,8L6.35,14.93a5.7,5.7,0,0,1,0-8,5.62,5.62,0,0,1,4-1.66m0-3A8.68,8.68,0,0,0,4.22,4.76h0a8.72,8.72,0,0,0,0,12.29L49.93,62.76a8.72,8.72,0,0,0,12.3,0h0a8.73,8.73,0,0,0,0-12.3L16.52,4.76a8.68,8.68,0,0,0-6.15-2.54Z"/><path class="cls-1" d="M10.37,63.79A7.18,7.18,0,0,1,5.29,51.53L51,5.82a7.22,7.22,0,0,1,10.18,0,7.21,7.21,0,0,1,0,10.17L15.46,61.7A7.14,7.14,0,0,1,10.37,63.79Z"/><path class="cls-2" d="M56.08,5.22a5.69,5.69,0,0,1,4,9.71L14.4,60.64a5.69,5.69,0,0,1-8-8L52.05,6.88a5.66,5.66,0,0,1,4-1.66m0-3a8.68,8.68,0,0,0-6.15,2.54L4.22,50.46a8.73,8.73,0,0,0,0,12.3h0a8.72,8.72,0,0,0,12.3,0L62.23,17.05a8.72,8.72,0,0,0,0-12.29h0a8.68,8.68,0,0,0-6.15-2.54Z"/><rect class="cls-1" x="30.56" y="23.01" width="11.27" height="27.31" transform="translate(-15.32 36.34) rotate(-45)"/></svg>