<svg id="Layer_1" data-name="Layer 1" xmlns="http://www.w3.org/2000/svg" viewBox="0 0 54.46 95.01"><defs><style>.cls-1{fill:#dd2f27;}.cls-2{fill:#921d1d;}.cls-3{fill:#501615;}</style></defs><title>marker</title><path class="cls-1" d="M27.22,93.5c-.1,0-.12,0-.14-.11a17.3,17.3,0,0,1-.55-1.86c-.93-4-1.87-7.51-2.87-10.86a157.91,157.91,0,0,0-5.81-16l-.42-1c-.38-.92-.77-1.88-1.23-2.81-.66-1.34-1.44-2.78-2.44-4.53q-1.93-3.37-3.89-6.73L7.5,45.46A62.62,62.62,0,0,1,3.73,38a30.11,30.11,0,0,1-2.14-9.58c0-.3-.09-1.27-.09-1.27V25.65a2.11,2.11,0,0,0,0-.33,21.12,21.12,0,0,1,.56-4,25,25,0,0,1,5-10.17A27,27,0,0,1,16.35,4a24.48,24.48,0,0,1,8.92-2.4c.51,0,1-.05,1.55-.05a24.55,24.55,0,0,1,5.38.62,27.31,27.31,0,0,1,8.33,3.42,25.7,25.7,0,0,1,8.55,8.23A24.46,24.46,0,0,1,53,26.19,29.51,29.51,0,0,1,52.67,31a29.84,29.84,0,0,1-2.21,8,64,64,0,0,1-3.68,7.1L45,49.17c-1.69,2.94-3.39,5.88-5.07,8.82-.61,1.07-1.25,2.22-1.8,3.41s-1,2.37-1.51,3.53l-.49,1.16a153.35,153.35,0,0,0-6.9,20.5c-.29,1.12-.57,2.25-.85,3.38-.2.83-.41,1.66-.62,2.49a2.8,2.8,0,0,1-.37,1l-.09.05Z" transform="translate(0 0)"/><path class="cls-2" d="M26.82,3a23.21,23.21,0,0,1,5,.58,26.12,26.12,0,0,1,7.88,3.23,24.36,24.36,0,0,1,8.07,7.76,22.61,22.61,0,0,1,3.64,11.66,27.67,27.67,0,0,1-.27,4.6,28.32,28.32,0,0,1-2.09,7.58,65.83,65.83,0,0,1-3.61,6.94l-1.86,3.24q-2.5,4.32-5,8.66c-.63,1.1-1.29,2.28-1.86,3.52s-1.05,2.41-1.54,3.59l-.48,1.16a153.84,153.84,0,0,0-7,20.69c-.18.68-.35,1.35-.51,2-.71-2.84-1.43-5.47-2.18-8A160.22,160.22,0,0,0,19.23,64c-.14-.33-.28-.66-.41-1-.39-.94-.79-1.92-1.27-2.89-.68-1.37-1.47-2.84-2.49-4.61-1.28-2.25-2.59-4.49-3.89-6.73L8.8,44.71a60.26,60.26,0,0,1-3.68-7.24,28.59,28.59,0,0,1-2-9.1c0-.32,0-.63-.06-.94l0-.31V25.78a3.58,3.58,0,0,0,0-.4,20.75,20.75,0,0,1,.52-3.74,23.32,23.32,0,0,1,4.67-9.56A25.59,25.59,0,0,1,17,5.3a23,23,0,0,1,8.37-2.25c.48,0,1,0,1.45,0m0-3c-.55,0-1.1,0-1.66.06A25.73,25.73,0,0,0,15.7,2.6a28.22,28.22,0,0,0-9.78,7.58A26.16,26.16,0,0,0,.64,21a23.07,23.07,0,0,0-.6,4.3,2,2,0,0,1,0,.24v1.73l.09,1.31A31.15,31.15,0,0,0,2.35,38.6,62.39,62.39,0,0,0,6.2,46.21c2.09,3.61,4.19,7.2,6.26,10.82.84,1.46,1.65,2.94,2.4,4.45.59,1.21,1.08,2.47,1.6,3.72a152.34,152.34,0,0,1,5.76,15.9c1.07,3.56,2,7.16,2.85,10.78.16.67.37,1.34.59,2A1.63,1.63,0,0,0,27,95l.33,0a1.53,1.53,0,0,0,1.31-.68,4.28,4.28,0,0,0,.61-1.5c.49-2,1-3.92,1.46-5.87a151.21,151.21,0,0,1,6.84-20.29c.65-1.55,1.27-3.12,2-4.65.52-1.12,1.13-2.21,1.74-3.28q3.4-6,6.84-11.89a66.5,66.5,0,0,0,3.76-7.26,31.35,31.35,0,0,0,2.32-8.38,33,33,0,0,0,.29-5.07A25.82,25.82,0,0,0,50.35,13a27.38,27.38,0,0,0-9-8.71A28.8,28.8,0,0,0,32.53.66,25.66,25.66,0,0,0,26.82,0Z" transform="translate(0 0)"/><circle class="cls-3" cx="26.92" cy="25.77" r="11.79"/></svg>